<svg width="24" height="24" viewBox="0 0 24 24" fill="none" xmlns="http://www.w3.org/2000/svg">
<path d="M4.42822 15.623C4.42822 15.9648 4.54541 16.2407 4.77979 16.4507C5.01416 16.6558 5.33398 16.7583 5.73926 16.7583H8.69824C8.71777 17.2271 8.85205 17.6665 9.10107 18.0767C9.35498 18.4917 9.70166 18.8286 10.1411 19.0874C10.5854 19.3462 11.0957 19.4756 11.6719 19.4756C12.2578 19.4756 12.7705 19.3462 13.21 19.0874C13.6543 18.8335 14.001 18.499 14.25 18.084C14.5039 17.6689 14.6406 17.2271 14.6602 16.7583H17.6191C18.0244 16.7583 18.3442 16.6558 18.5786 16.4507C18.813 16.2407 18.9302 15.9648 18.9302 15.623C18.9302 15.3496 18.8618 15.0933 18.7251 14.854C18.5933 14.6099 18.4224 14.3779 18.2124 14.1582C18.0024 13.9336 17.7852 13.7139 17.5605 13.499C17.3799 13.333 17.2383 13.1182 17.1357 12.8545C17.0381 12.5859 16.9624 12.2856 16.9087 11.9536C16.8599 11.6167 16.8159 11.2578 16.7769 10.877C16.7329 9.97852 16.6035 9.18018 16.3887 8.48193C16.1787 7.78369 15.8687 7.19775 15.4585 6.72412C15.0532 6.24561 14.5356 5.8916 13.9058 5.66211C13.7593 5.16895 13.4883 4.76123 13.0928 4.43896C12.6973 4.11182 12.2236 3.94824 11.6719 3.94824C11.1299 3.94824 10.6611 4.11182 10.2656 4.43896C9.87012 4.76123 9.59912 5.16895 9.45264 5.66211C8.81787 5.8916 8.29541 6.24561 7.88525 6.72412C7.47998 7.19775 7.17236 7.78369 6.9624 8.48193C6.75244 9.18018 6.62549 9.97852 6.58154 10.877C6.54248 11.2578 6.49609 11.6167 6.44238 11.9536C6.39355 12.2856 6.31787 12.5859 6.21533 12.8545C6.11768 13.1182 5.97852 13.333 5.79785 13.499C5.57324 13.7139 5.35596 13.9336 5.146 14.1582C4.93604 14.3779 4.7627 14.6099 4.62598 14.854C4.49414 15.0933 4.42822 15.3496 4.42822 15.623ZM6.42041 15.2422V15.1616C6.49854 15.0933 6.59131 15.0103 6.69873 14.9126C6.81104 14.8101 6.92822 14.6978 7.05029 14.5757C7.17725 14.4536 7.29688 14.3242 7.40918 14.1875C7.53125 14.0459 7.63623 13.8701 7.72412 13.6602C7.81689 13.4502 7.89502 13.2134 7.9585 12.9497C8.02686 12.686 8.08057 12.4004 8.11963 12.0928C8.15869 11.7852 8.18799 11.4604 8.20752 11.1187C8.2417 10.186 8.354 9.44141 8.54443 8.88477C8.73975 8.32324 8.98877 7.90088 9.2915 7.61768C9.59912 7.33447 9.94336 7.1416 10.3242 7.03906C10.4121 7.01953 10.4805 6.98535 10.5293 6.93652C10.5781 6.8877 10.6074 6.80957 10.6172 6.70215C10.6416 6.34082 10.7466 6.05029 10.9321 5.83057C11.1177 5.61084 11.3643 5.50098 11.6719 5.50098C11.9844 5.50098 12.2334 5.61084 12.4189 5.83057C12.6094 6.05029 12.7168 6.34082 12.7412 6.70215C12.7461 6.80957 12.7729 6.8877 12.8218 6.93652C12.8755 6.98535 12.9463 7.01953 13.0342 7.03906C13.4102 7.1416 13.7495 7.33447 14.0522 7.61768C14.3599 7.90088 14.6113 8.32324 14.8066 8.88477C15.002 9.44141 15.1143 10.186 15.1436 11.1187C15.1631 11.4604 15.1948 11.7852 15.2388 12.0928C15.2827 12.4004 15.334 12.686 15.3926 12.9497C15.4561 13.2134 15.5342 13.4502 15.627 13.6602C15.7197 13.8701 15.8247 14.0459 15.9419 14.1875C16.0591 14.3242 16.1763 14.4536 16.2935 14.5757C16.4155 14.6978 16.5278 14.8101 16.6304 14.9126C16.7378 15.0103 16.8306 15.0933 16.9087 15.1616V15.2422H6.42041ZM10.2583 16.7583H13.1001C13.0708 17.1929 12.9243 17.5396 12.6606 17.7983C12.4019 18.0571 12.0723 18.1865 11.6719 18.1865C11.2812 18.1865 10.9541 18.0571 10.6904 17.7983C10.4268 17.5396 10.2827 17.1929 10.2583 16.7583Z" fill="white" fill-opacity="0.6"/>
</svg>
