<svg width="24" height="24" viewBox="0 0 24 24" fill="none" xmlns="http://www.w3.org/2000/svg">
<path d="M17.3887 12.0708C17.3887 11.812 17.3057 11.5996 17.1396 11.4336C16.9736 11.2676 16.7661 11.1846 16.5171 11.1846C16.3853 11.1846 16.2632 11.2114 16.1509 11.2651C16.0435 11.314 15.9482 11.3799 15.8652 11.4629L14.2173 13.1035L11.9028 15.7109L12.4375 16.0186L12.54 13.4771V4.79053C12.54 4.51709 12.4546 4.29248 12.2837 4.1167C12.1177 3.94092 11.8979 3.85303 11.6245 3.85303C11.356 3.85303 11.1362 3.94092 10.9653 4.1167C10.7993 4.29248 10.7163 4.51709 10.7163 4.79053V13.4771L10.8188 16.0186L11.3535 15.7109L9.03906 13.1035L7.38379 11.4629C7.30078 11.3799 7.20557 11.314 7.09814 11.2651C6.99072 11.2114 6.87109 11.1846 6.73926 11.1846C6.49023 11.1846 6.28271 11.2676 6.1167 11.4336C5.95068 11.5996 5.86768 11.812 5.86768 12.0708C5.86768 12.3149 5.96289 12.5322 6.15332 12.7227L10.9507 17.5347C11.0435 17.6274 11.1484 17.6982 11.2656 17.7471C11.3828 17.7959 11.5024 17.8203 11.6245 17.8203C11.7515 17.8203 11.8735 17.7959 11.9907 17.7471C12.1128 17.6982 12.2178 17.6274 12.3057 17.5347L17.103 12.7227C17.2935 12.5322 17.3887 12.3149 17.3887 12.0708ZM17.3887 18.7065C17.3887 18.4526 17.3057 18.2402 17.1396 18.0693C16.9736 17.9033 16.7661 17.8203 16.5171 17.8203H6.74658C6.49756 17.8203 6.2876 17.9033 6.1167 18.0693C5.95068 18.2402 5.86768 18.4526 5.86768 18.7065C5.86768 18.9556 5.95068 19.1655 6.1167 19.3364C6.2876 19.5073 6.49756 19.5928 6.74658 19.5928H16.5171C16.7661 19.5928 16.9736 19.5073 17.1396 19.3364C17.3057 19.1655 17.3887 18.9556 17.3887 18.7065Z" fill="white" fill-opacity="0.6"/>
</svg>
