<svg width="24" height="24" viewBox="0 0 24 24" fill="none" xmlns="http://www.w3.org/2000/svg">
<path d="M12.144 7.50049C11.9536 7.50049 11.7925 7.56641 11.6606 7.69824C11.5288 7.83008 11.4629 7.98877 11.4629 8.17432V12.0708C11.4629 12.1685 11.4775 12.2612 11.5068 12.3491C11.541 12.4321 11.5898 12.5151 11.6533 12.5981L13.3599 14.854C13.5015 15.0298 13.6626 15.1348 13.8433 15.1689C14.0288 15.1982 14.2046 15.1543 14.3706 15.0371C14.5317 14.9248 14.6196 14.7759 14.6343 14.5903C14.6489 14.3999 14.5952 14.2241 14.4731 14.063L12.1221 10.9209L12.8179 13.0229V8.17432C12.8179 7.98877 12.752 7.83008 12.6201 7.69824C12.4883 7.56641 12.3296 7.50049 12.144 7.50049ZM12.415 19.3511C13.46 19.3511 14.4414 19.1509 15.3594 18.7505C16.2822 18.355 17.0952 17.8057 17.7983 17.1025C18.5015 16.3994 19.0532 15.5889 19.4536 14.6709C19.854 13.748 20.0542 12.7617 20.0542 11.7119C20.0542 10.667 19.854 9.68555 19.4536 8.76758C19.0532 7.84473 18.5015 7.03174 17.7983 6.32861C17.0952 5.62549 16.2822 5.07617 15.3594 4.68066C14.4414 4.28027 13.46 4.08008 12.415 4.08008C11.3701 4.08008 10.3887 4.27783 9.4707 4.67334C8.55273 5.06396 7.74219 5.6084 7.03906 6.30664C6.33594 7.00488 5.78418 7.81299 5.38379 8.73096C4.9834 9.64893 4.78076 10.6279 4.77588 11.668H6.45312C6.45801 10.8428 6.61426 10.0737 6.92188 9.36084C7.22949 8.64307 7.65674 8.01562 8.20361 7.47852C8.75049 6.94141 9.38281 6.52148 10.1006 6.21875C10.8184 5.91113 11.5898 5.75732 12.415 5.75732C13.2402 5.75732 14.0117 5.91113 14.7295 6.21875C15.4521 6.52637 16.0845 6.95361 16.6265 7.50049C17.1733 8.04248 17.6006 8.6748 17.9082 9.39746C18.2207 10.1152 18.377 10.8867 18.377 11.7119C18.377 12.542 18.2207 13.3184 17.9082 14.041C17.6006 14.7588 17.1733 15.3911 16.6265 15.938C16.0845 16.4849 15.4521 16.9121 14.7295 17.2197C14.0117 17.5273 13.2402 17.6787 12.415 17.6738C11.7852 17.6738 11.187 17.5835 10.6206 17.4028C10.0591 17.2222 9.53906 16.9658 9.06055 16.6338C8.58691 16.2969 8.16699 15.9014 7.80078 15.4473C7.62988 15.2617 7.43213 15.147 7.20752 15.103C6.98291 15.0542 6.77295 15.1079 6.57764 15.2642C6.39209 15.4058 6.28955 15.5938 6.27002 15.8281C6.25537 16.0576 6.34326 16.2847 6.53369 16.5093C6.97314 17.0708 7.50293 17.5664 8.12305 17.9961C8.74805 18.4258 9.42676 18.7578 10.1592 18.9922C10.8965 19.2314 11.6484 19.3511 12.415 19.3511ZM3.9043 10.1665C3.7041 10.1665 3.55273 10.2129 3.4502 10.3057C3.35254 10.3984 3.30615 10.5181 3.31104 10.6646C3.31592 10.8062 3.37207 10.9502 3.47949 11.0967L5.35449 13.6602C5.48145 13.8311 5.63281 13.9165 5.80859 13.9165C5.98438 13.9116 6.1333 13.8262 6.25537 13.6602L8.1377 11.0894C8.24023 10.9429 8.2915 10.7988 8.2915 10.6572C8.29639 10.5156 8.25 10.3984 8.15234 10.3057C8.05469 10.2129 7.90576 10.1665 7.70557 10.1665H3.9043Z" fill="white" fill-opacity="0.6"/>
</svg>
