<svg width="24" height="24" viewBox="0 0 24 24" fill="none" xmlns="http://www.w3.org/2000/svg">
<path d="M6.83008 18.9263H16.7397C17.853 18.9263 18.5049 18.2891 18.5049 17.2051V10.3423L19.3984 11.0894C19.5742 11.2358 19.772 11.3604 19.999 11.3604C20.4238 11.3604 20.7461 11.0967 20.7461 10.6792C20.7461 10.4302 20.6509 10.2324 20.4604 10.0786L18.5049 8.43066V5.31787C18.5049 4.98828 18.2925 4.77588 17.9629 4.77588H16.9741C16.6519 4.77588 16.4321 4.98828 16.4321 5.31787V6.6875L12.8433 3.66992C12.2134 3.14258 11.4224 3.14258 10.7852 3.66992L3.15332 10.0786C2.96289 10.2397 2.86768 10.4521 2.86768 10.6572C2.86768 11.0381 3.15332 11.3604 3.62207 11.3604C3.84912 11.3604 4.04688 11.2358 4.22266 11.0894L5.06494 10.3862V17.2051C5.06494 18.2891 5.7168 18.9263 6.83008 18.9263ZM13.9126 12.686C13.9126 12.3418 13.6929 12.1221 13.3486 12.1221H10.2651C9.92822 12.1221 9.69385 12.3418 9.69385 12.686V17.4907H7.21094C6.74951 17.4907 6.50049 17.2344 6.50049 16.7729V9.17773L11.5029 4.98828C11.7007 4.8125 11.9277 4.8125 12.1255 4.98828L17.0693 9.13379V16.7729C17.0693 17.2344 16.8203 17.4907 16.3589 17.4907H13.9126V12.686Z" fill="white" fill-opacity="0.6"/>
</svg>
