<svg width="24" height="24" viewBox="0 0 24 24" fill="none" xmlns="http://www.w3.org/2000/svg">
<path d="M5.27002 15.8281H6.56641V16.9341C6.56641 18.5015 7.38672 19.3071 8.96875 19.3071H18.9663C20.5483 19.3071 21.3687 18.4941 21.3687 16.9341V9.97607C21.3687 8.40869 20.5483 7.5957 18.9663 7.5957H17.604V6.49707C17.604 4.92969 16.7764 4.1167 15.2017 4.1167H5.27002C3.68799 4.1167 2.86768 4.92969 2.86768 6.49707V13.4551C2.86768 15.0151 3.68799 15.8281 5.27002 15.8281ZM5.35791 14.3926C4.67676 14.3926 4.30322 14.041 4.30322 13.3306V6.61426C4.30322 5.90381 4.67676 5.55225 5.35791 5.55225H15.1138C15.7876 5.55225 16.1685 5.90381 16.1685 6.61426V7.5957H8.96875C7.38672 7.5957 6.56641 8.40869 6.56641 9.97607V14.3926H5.35791ZM9.05664 17.8789C8.37549 17.8789 8.00195 17.52 8.00195 16.8096V10.1006C8.00195 9.39014 8.37549 9.03125 9.05664 9.03125H18.8784C19.5522 9.03125 19.9331 9.39014 19.9331 10.1006V16.8096C19.9331 17.52 19.5522 17.8789 18.8784 17.8789H9.05664ZM11.9644 15.9819C11.9644 16.3115 12.3232 16.4507 12.6016 16.2896L16.8569 13.7993C17.1206 13.6382 17.1133 13.272 16.8496 13.1108L12.6016 10.6206C12.3232 10.4595 11.9644 10.5913 11.9644 10.9282V15.9819Z" fill="white" fill-opacity="0.6"/>
</svg>
