<svg width="32" height="32" viewBox="0 0 32 32" fill="none" xmlns="http://www.w3.org/2000/svg">
<path fill-rule="evenodd" clip-rule="evenodd" d="M16 32C24.8366 32 32 24.8366 32 16C32 7.16344 24.8366 0 16 0C7.16344 0 0 7.16344 0 16C0 24.8366 7.16344 32 16 32Z" fill="black"/>
<path fill-rule="evenodd" clip-rule="evenodd" d="M18.5 7C16.9087 7 15.3826 7.63214 14.2574 8.75736C13.1321 9.88258 12.5 11.4087 12.5 13L18.5 13L18.5 7ZM18.5 7L18.5 13C21.8137 13 24.5 10.3137 24.5 7L18.5 7Z" fill="#44D19F"/>
<path fill-rule="evenodd" clip-rule="evenodd" d="M6.50006 13.0001C6.50009 14.5914 7.13222 16.1174 8.25742 17.2426C9.38264 18.3679 10.9088 19 12.5001 19L12.5001 13H12.5C12.5 12.2121 12.3448 11.4319 12.0433 10.704C11.7418 9.97604 11.2998 9.31461 10.7427 8.75746C10.1855 8.2003 9.5241 7.75835 8.79615 7.45682C8.06819 7.15529 7.28798 7.0001 6.50005 7.0001L6.50004 13.0001H6.50006Z" fill="url(#paint0_linear_2054_14771)"/>
<path d="M18.5 13C19.6867 13 20.8467 13.3519 21.8334 14.0112C22.8201 14.6705 23.5892 15.6075 24.0433 16.7039C24.4974 17.8003 24.6162 19.0067 24.3847 20.1705C24.1532 21.3344 23.5818 22.4035 22.7426 23.2426C21.9035 24.0818 20.8344 24.6532 19.6705 24.8847C18.5067 25.1162 17.3003 24.9974 16.2039 24.5433C15.1075 24.0892 14.1705 23.3201 13.5112 22.3334C12.8519 21.3467 12.5 20.1867 12.5 19L18.5 19L18.5 13Z" fill="url(#paint1_linear_2054_14771)"/>
<path d="M12.5 22C12.5 23.6569 11.1569 25 9.5 25C7.84315 25 6.5 23.6569 6.5 22C6.5 20.3431 7.84315 19 9.5 19C10.2989 19 12.5 19 12.5 19C12.5 19 12.5 21.1421 12.5 22Z" fill="white"/>
<defs>
<linearGradient id="paint0_linear_2054_14771" x1="10.625" y1="19" x2="10.625" y2="7" gradientUnits="userSpaceOnUse">
<stop stop-color="#003CB4"/>
<stop offset="1" stop-color="#6498FF"/>
</linearGradient>
<linearGradient id="paint1_linear_2054_14771" x1="27.6875" y1="25.75" x2="15.615" y2="18.4704" gradientUnits="userSpaceOnUse">
<stop stop-color="#4D29C0"/>
<stop offset="1" stop-color="#9D80FF"/>
</linearGradient>
</defs>
</svg>
