<svg width="32" height="32" viewBox="0 0 32 32" fill="none" xmlns="http://www.w3.org/2000/svg">
<path d="M16 32C24.8366 32 32 24.8366 32 16C32 7.16344 24.8366 0 16 0C7.16344 0 0 7.16344 0 16C0 24.8366 7.16344 32 16 32Z" fill="#585858"/>
<path d="M24 11.5L16 7L8 11.5M24 11.5L16 16L8 11.5M24 11.5V20.5L16 25L8 20.5V11.5" stroke="black" stroke-width="0.5"/>
<path d="M16 7V25" stroke="black" stroke-width="0.5"/>
<path d="M8 11.5L24 20.5M24 11.5L8 20.5" stroke="black" stroke-width="0.5"/>
<path d="M24 11.5001V14.3126M24 11.5001L21.1429 9.89297M24 11.5001L21.1429 13.1073M8 11.5001L10.8571 13.1073M8 11.5001L10.8571 9.89297M8 11.5001V14.3126M21.1429 22.1073L24 20.5001V17.6876M10.8571 22.1073L8 20.5001V17.6876" stroke="#F4BC41" stroke-linecap="round" stroke-linejoin="round"/>
<path d="M16 7L13.374 8.4771M16 7L18.6259 8.4771M16 7V9.8125" stroke="#F4BC41" stroke-linecap="round" stroke-linejoin="round"/>
<path d="M16 16.0001L18.6259 14.5229M16 16.0001L13.374 14.5229M16 16.0001L16 18.8126" stroke="#F4BC41" stroke-linecap="round" stroke-linejoin="round"/>
<path d="M16 25L18.6259 23.5229M16 25L13.374 23.5229M16 25L16 22.1875" stroke="#F4BC41" stroke-linecap="round" stroke-linejoin="round"/>
<path d="M8 11.5L10.8571 13.1071M24 20.5L21.1429 18.8929" stroke="#F4BC41" stroke-linecap="round" stroke-linejoin="round"/>
<path d="M24 11.5L21.1429 13.1071M8 20.5L10.8571 18.8929" stroke="#F4BC41" stroke-linecap="round" stroke-linejoin="round"/>
</svg>
