<svg width="32" height="32" viewBox="0 0 32 32" fill="none" xmlns="http://www.w3.org/2000/svg">
<path fill-rule="evenodd" clip-rule="evenodd" d="M16 32C24.8366 32 32 24.8366 32 16C32 7.16344 24.8366 0 16 0C7.16344 0 0 7.16344 0 16C0 24.8366 7.16344 32 16 32Z" fill="black"/>
<path d="M19.5303 20.0708H23.6488L18.0978 10.4809L16.0685 13.8344L17.6286 16.641L19.5303 20.0708Z" fill="#3C10EE"/>
<path d="M8.70336 24.5787L7.11369 21.8531C6.96277 21.5943 6.96206 21.2759 7.11183 21.0165L11.2949 13.771L14.8558 7.43304C15.1803 6.85545 16.0214 6.8557 16.3455 7.43349L17.8722 10.1547C18.0209 10.4196 18.0138 10.743 17.8538 11.0014L16.5617 13.0878L10.1881 24.5634C9.86862 25.1386 9.03496 25.1472 8.70336 24.5787Z" fill="#B6C4FF"/>
<path d="M20.4378 20.0708H23.6311L24.8882 22.2642C25.2095 22.825 24.7994 23.5198 24.1469 23.5198H15.1252C14.4771 23.5198 14.0665 22.8334 14.3791 22.2727L15.3642 20.5062C15.5139 20.2376 15.7998 20.0708 16.1102 20.0708H20.4378Z" fill="#2CA4FE"/>
</svg>
