<svg width="32" height="32" viewBox="0 0 32 32" fill="none" xmlns="http://www.w3.org/2000/svg">
<path fill-rule="evenodd" clip-rule="evenodd" d="M16 32C24.8366 32 32 24.8366 32 16C32 7.16344 24.8366 0 16 0C7.16344 0 0 7.16344 0 16C0 24.8366 7.16344 32 16 32Z" fill="#FF427A"/>
<g clip-path="url(#clip0_2054_14764)">
<path d="M25.7495 19.3981C25.7495 19.3981 25.1094 20.8586 24.3708 21.1208C23.6323 21.383 22.9947 20.8212 24.219 18.0501C25.4437 15.2786 24.7549 12.8817 23.9897 12.1326C23.224 11.3836 21.158 11.1589 20.0101 11.8331C18.8619 12.5072 18.093 13.4625 18.093 13.4625L18.4623 11.4586L13.9641 11.5335L13.2753 14.0052H15.2649C15.2649 14.0052 13.4283 19.4468 13.2753 19.5723C13.1224 19.6978 11.8152 20.6751 11.2612 20.8586C10.7073 21.0426 10.0611 21.1958 10.3672 19.9975C10.6734 18.7991 12.5101 11.4586 12.5101 11.4586H7.45836L7 13.8554V14.0052H8.83671C8.83671 14.0052 7.38373 19.6978 7.30618 20.3718C7.22829 21.0462 7.38373 22.4397 9.59944 22.8435C11.8152 23.2478 13.4283 21.1208 13.4283 21.1208L13.1224 22.8435H16.0305C16.0305 22.8435 17.5391 16.9707 18.093 15.6782C18.6469 14.3857 20.4934 13.2555 21.4166 14.0052C22.3398 14.755 21.9233 15.9526 21.5406 16.9263C21.158 17.9 20.3087 20.4789 21.0473 21.7714C21.7859 23.0639 24.219 23.6178 25.5966 22.0199C26.5866 20.8586 26.9558 19.7403 26.9558 19.7403L25.7495 19.3981Z" fill="white"/>
<path d="M11.0767 9.95428C11.8926 9.95428 12.5539 9.29294 12.5539 8.47714C12.5539 7.66134 11.8926 7 11.0767 7C10.2609 7 9.59961 7.66134 9.59961 8.47714C9.59961 9.29294 10.2609 9.95428 11.0767 9.95428Z" fill="white"/>
</g>
<defs>
<clipPath id="clip0_2054_14764">
<rect width="19.9558" height="16" fill="white" transform="translate(7 7)"/>
</clipPath>
</defs>
</svg>
