<svg width="32" height="32" viewBox="0 0 32 32" fill="none" xmlns="http://www.w3.org/2000/svg">
<path d="M32 16C32 24.8 24.8 32 16 32C7.2 32 0 24.8 0 16C0 7.2 7.2 0 16 0C24.8 0 32 7.2 32 16Z" fill="black"/>
<path d="M10.1818 8.72726H17.4546C21.4712 8.72726 24.7273 11.9834 24.7273 16C24.7273 20.0166 21.4712 23.2727 17.4546 23.2727H10.1818V8.72726Z" stroke="url(#paint0_linear_2054_14757)" stroke-width="1.11111"/>
<path d="M22.0786 10.4252C20.8365 9.40603 19.3857 8.74453 17.6556 8.72726L10.3614 16L17.6556 23.2727C19.3856 23.2554 20.8365 22.5752 22.0786 21.5562C22.0484 21.526 20.0999 19.6451 19.3941 18.9415C18.6883 18.2379 16.9294 16.5276 16.4 16C16.4 16 22.0484 10.4554 22.0786 10.4252Z" stroke="url(#paint1_linear_2054_14757)" stroke-width="1.11111"/>
<defs>
<linearGradient id="paint0_linear_2054_14757" x1="10.1818" y1="8.72726" x2="10.1818" y2="23.2727" gradientUnits="userSpaceOnUse">
<stop stop-color="#9EE1EC"/>
<stop offset="1" stop-color="#E5A7E0"/>
</linearGradient>
<linearGradient id="paint1_linear_2054_14757" x1="10.3614" y1="8.72726" x2="10.3614" y2="23.2727" gradientUnits="userSpaceOnUse">
<stop stop-color="#9EE1EC"/>
<stop offset="1" stop-color="#E5A7E0"/>
</linearGradient>
</defs>
</svg>
