<svg width="32" height="32" viewBox="0 0 32 32" fill="none" xmlns="http://www.w3.org/2000/svg">
<path d="M16 32C24.8366 32 32 24.8366 32 16C32 7.16344 24.8366 0 16 0C7.16344 0 0 7.16344 0 16C0 24.8366 7.16344 32 16 32Z" fill="white"/>
<path fill-rule="evenodd" clip-rule="evenodd" d="M16.6569 12.1569C14.509 14.3047 14.509 17.7871 16.6569 19.935C17.3108 20.589 18.0886 21.0439 18.9146 21.2996L17 23L10 16L17 9L18.8761 10.8043C18.0644 11.0622 17.3007 11.513 16.6569 12.1569Z" fill="#AF102F"/>
<path d="M21.2678 14.2322C22.2441 15.2085 22.2441 16.7915 21.2678 17.7678C20.2915 18.7441 18.7085 18.7441 17.7322 17.7678C16.7559 16.7915 16.7559 15.2085 17.7322 14.2322C18.7085 13.2559 20.2915 13.2559 21.2678 14.2322Z" fill="#AF102F"/>
</svg>
