<svg width="32" height="32" viewBox="0 0 32 32" fill="none" xmlns="http://www.w3.org/2000/svg">
<path fill-rule="evenodd" clip-rule="evenodd" d="M16 32C24.8366 32 32 24.8366 32 16C32 7.16344 24.8366 0 16 0C7.16344 0 0 7.16344 0 16C0 24.8366 7.16344 32 16 32Z" fill="black"/>
<mask id="mask0_2054_14760" style="mask-type:alpha" maskUnits="userSpaceOnUse" x="9" y="9" width="14" height="14">
<path d="M10.1985 9.87076C10.0654 9.87076 9.94339 9.92691 9.86064 10.0189C9.78609 10.0968 9.73975 10.2028 9.73639 10.3181V10.3487C9.73787 10.4034 9.74861 10.4547 9.76782 10.5018C9.76863 10.506 9.77037 10.5094 9.77185 10.5135C9.7869 10.5491 9.80584 10.5822 9.82988 10.6129C9.83808 10.6246 9.84734 10.6354 9.85728 10.6452C9.8589 10.6477 9.86131 10.6501 9.86387 10.6527L11.3368 12.4014L11.8686 13.0326L13.4609 14.9223L13.9927 15.5526L15.4183 17.2451L15.9492 17.8754V22.2965C15.9784 22.2965 16.0066 22.2957 16.0346 22.2933C16.3138 22.2736 16.5656 22.1541 16.7553 21.9711C16.7563 21.9711 16.7563 21.9711 16.7563 21.9701L16.9127 21.7838L20.7367 17.2451L22.0456 15.6909C22.0521 15.6844 22.0579 15.6768 22.0638 15.6694C22.0919 15.6347 22.1142 15.5956 22.1307 15.5526C22.1516 15.5013 22.1623 15.445 22.1623 15.3852V10.333C22.1623 10.2111 22.115 10.0993 22.0372 10.0181C21.9536 9.92691 21.8333 9.87076 21.6991 9.87076H10.1985Z" fill="white"/>
</mask>
<g mask="url(#mask0_2054_14760)">
<path fill-rule="evenodd" clip-rule="evenodd" d="M10.1985 9.87076C10.0654 9.87076 9.94339 9.92691 9.86064 10.0189C9.78609 10.0968 9.73975 10.2028 9.73639 10.3181V10.3487C9.73787 10.4034 9.74861 10.4547 9.76782 10.5018C9.76863 10.506 9.77037 10.5094 9.77185 10.5135C9.7869 10.5491 9.80584 10.5822 9.82988 10.6129C9.83808 10.6246 9.84734 10.6354 9.85728 10.6452C9.8589 10.6477 9.86131 10.6501 9.86387 10.6527L11.3368 12.4014L11.8686 13.0326L13.4609 14.9223L13.9927 15.5526L15.4183 17.2451L15.9492 17.8754V22.2965C15.9784 22.2965 16.0066 22.2957 16.0346 22.2933C16.3138 22.2736 16.5656 22.1541 16.7553 21.9711C16.7563 21.9711 16.7563 21.9711 16.7563 21.9701L16.9127 21.7838L20.7367 17.2451L22.0456 15.6909C22.0521 15.6844 22.0579 15.6768 22.0638 15.6694C22.0919 15.6347 22.1142 15.5956 22.1307 15.5526C22.1516 15.5013 22.1623 15.445 22.1623 15.3852V10.333C22.1623 10.2111 22.115 10.0993 22.0372 10.0181C21.9536 9.92691 21.8333 9.87076 21.6991 9.87076H10.1985Z" fill="url(#paint0_linear_2054_14760)"/>
</g>
<path fill-rule="evenodd" clip-rule="evenodd" d="M15.9493 20.4063V22.2965C15.6362 22.2965 15.3521 22.1723 15.1432 21.9709C15.1424 21.9709 15.1424 21.9709 15.1424 21.9702L14.9859 21.7838L11.162 17.2451L9.86064 15.7001C9.85728 15.6985 9.85487 15.6951 9.85312 15.6917L9.83243 15.6678C9.83082 15.6661 9.82988 15.6645 9.8284 15.6627C9.80342 15.6289 9.78193 15.5923 9.76782 15.5526C9.74875 15.5054 9.738 15.4541 9.73639 15.401V15.3696C9.73639 15.3597 9.7372 15.3496 9.73894 15.3397C9.74794 15.2354 9.79267 15.1425 9.86064 15.0697C9.94433 14.9794 10.0652 14.9223 10.1985 14.9223H11.3278L11.8588 15.5526L13.2844 17.2451L15.622 20.0194L15.9485 20.4071L15.9493 20.4063Z" fill="#FCD1CA"/>
<path fill-rule="evenodd" clip-rule="evenodd" d="M15.9493 17.8758V20.406L15.9485 20.4068L15.6224 20.0193L13.2848 17.2453L11.8589 15.553L11.3278 14.9223L9.85205 13.1718C9.84587 13.1649 9.83969 13.1571 9.83351 13.1492C9.80637 13.1144 9.78381 13.0756 9.76742 13.0327C9.74888 12.9855 9.738 12.9341 9.73639 12.8799V12.8487C9.73948 12.7331 9.78609 12.6289 9.86064 12.5498C9.94379 12.4581 10.0648 12.4014 10.1985 12.4014H11.337L11.869 13.0327L13.4612 14.9223L13.9923 15.553L15.4182 17.2453L15.9493 17.8758Z" fill="#FF9D8D"/>
<mask id="mask1_2054_14760" style="mask-type:alpha" maskUnits="userSpaceOnUse" x="7" y="7" width="18" height="19">
<path d="M7 25.0329H24.8986V7.13434H7V25.0329Z" fill="white"/>
</mask>
<g mask="url(#mask1_2054_14760)">
</g>
<defs>
<linearGradient id="paint0_linear_2054_14760" x1="20.9032" y1="8.3997" x2="11.3347" y2="17.9684" gradientUnits="userSpaceOnUse">
<stop stop-color="#FF6660"/>
<stop offset="1" stop-color="#FB4444"/>
</linearGradient>
</defs>
</svg>
