<svg width="40" height="40" viewBox="0 0 40 40" fill="none" xmlns="http://www.w3.org/2000/svg">
<path d="M10 10C15.5228 4.47715 24.4772 4.47715 30 10V10C35.5228 15.5228 35.5228 24.4772 30 30V30C24.4772 35.5228 15.5228 35.5228 10 30V30C4.47715 24.4772 4.47715 15.5228 10 10V10Z" stroke="url(#paint0_linear_2235_3088)"/>
<path d="M20.5 22.4062C22.0859 22.4062 23.2422 21.2266 23.2422 19.4922V14.2344C23.2422 12.5078 22.0859 11.3203 20.5 11.3203C18.9141 11.3203 17.7578 12.5078 17.7578 14.2344V19.4922C17.7578 21.2266 18.9141 22.4062 20.5 22.4062ZM14.5703 19.6719C14.5703 22.8828 16.7031 25.0859 19.7891 25.3828V26.9844H16.9141C16.5156 26.9844 16.1797 27.3125 16.1797 27.7188C16.1797 28.1172 16.5156 28.4453 16.9141 28.4453H24.0859C24.4922 28.4453 24.8281 28.1172 24.8281 27.7188C24.8281 27.3125 24.4922 26.9844 24.0859 26.9844H21.2188V25.3828C24.2969 25.0859 26.4375 22.8828 26.4375 19.6719V18.125C26.4375 17.7188 26.1094 17.3984 25.7031 17.3984C25.2969 17.3984 24.9609 17.7188 24.9609 18.125V19.6172C24.9609 22.2734 23.1641 24.0312 20.5 24.0312C17.8359 24.0312 16.0391 22.2734 16.0391 19.6172V18.125C16.0391 17.7188 15.7109 17.3984 15.3047 17.3984C14.8984 17.3984 14.5703 17.7188 14.5703 18.125V19.6719Z" fill="white" fill-opacity="0.6"/>
<defs>
<linearGradient id="paint0_linear_2235_3088" x1="6.5" y1="5" x2="35.5" y2="31" gradientUnits="userSpaceOnUse">
<stop stop-color="#A73EE7"/>
<stop offset="1" stop-color="#00EBFF"/>
</linearGradient>
</defs>
</svg>
