<svg width="24" height="24" viewBox="0 0 24 24" fill="none" xmlns="http://www.w3.org/2000/svg">
<path d="M4.88916 16.9268H19.479C20.79 16.9268 21.4932 16.2236 21.4932 14.9053V6.46777C21.4932 5.14941 20.79 4.44629 19.479 4.44629H4.88916C3.5708 4.44629 2.86768 5.14941 2.86768 6.46777V14.9053C2.86768 16.2236 3.5708 16.9268 4.88916 16.9268ZM4.96973 15.5278C4.50098 15.5278 4.2666 15.3008 4.2666 14.8247V6.54834C4.2666 6.07227 4.50098 5.84521 4.96973 5.84521H19.3911C19.8599 5.84521 20.0942 6.07227 20.0942 6.54834V14.8247C20.0942 15.3008 19.8599 15.5278 19.3911 15.5278H4.96973ZM14.3594 9.41943C14.7256 9.33154 14.8354 9.24365 14.8354 8.81152V7.37598C14.8354 7.07568 14.7183 6.95117 14.3228 7.04639L12.1841 7.58105C11.8105 7.66895 11.73 7.75684 11.73 8.19629V11.4043C11.73 11.7192 11.708 11.7705 11.3491 11.8657L10.6826 12.0415C9.98682 12.2246 9.44482 12.6348 9.44482 13.3452C9.44482 13.9824 9.9209 14.4365 10.668 14.4365C11.7227 14.4365 12.4404 13.6821 12.4404 12.6128V10.1885C12.4404 9.93213 12.499 9.86621 12.6528 9.83691L14.3594 9.41943ZM8.43408 19.4829H15.9268C16.293 19.4829 16.5933 19.1826 16.5933 18.8237C16.5933 18.4575 16.293 18.1572 15.9268 18.1572H8.43408C8.06787 18.1572 7.7749 18.4575 7.7749 18.8237C7.7749 19.1826 8.06787 19.4829 8.43408 19.4829Z" fill="white" fill-opacity="0.6"/>
</svg>
