<svg width="24" height="24" viewBox="0 0 24 24" fill="none" xmlns="http://www.w3.org/2000/svg">
<path d="M5.35059 18.626H17.7944C18.605 18.626 19.2202 18.416 19.6401 17.9961C20.0601 17.5762 20.27 16.9683 20.27 16.1724V7.27344C20.27 6.47266 20.0601 5.8623 19.6401 5.44238C19.2202 5.02246 18.605 4.8125 17.7944 4.8125H5.35059C4.54004 4.8125 3.92236 5.02246 3.49756 5.44238C3.07764 5.85742 2.86768 6.46777 2.86768 7.27344V16.1724C2.86768 16.9683 3.07764 17.5762 3.49756 17.9961C3.92236 18.416 4.54004 18.626 5.35059 18.626ZM5.48242 16.9927C5.16016 16.9927 4.91357 16.9121 4.74268 16.751C4.57666 16.585 4.49365 16.3335 4.49365 15.9966V7.44189C4.49365 7.10498 4.57666 6.85352 4.74268 6.6875C4.91357 6.52148 5.16016 6.43848 5.48242 6.43848H17.6553C17.9727 6.43848 18.2168 6.52148 18.3877 6.6875C18.5586 6.85352 18.644 7.10498 18.644 7.44189V15.9966C18.644 16.3335 18.5586 16.585 18.3877 16.751C18.2168 16.9121 17.9727 16.9927 17.6553 16.9927H5.48242ZM10.1919 14.6196L14.4399 12.1367C14.5962 12.0439 14.6719 11.9072 14.667 11.7266C14.667 11.5459 14.5913 11.4116 14.4399 11.3237L10.1919 8.81885C10.0308 8.72607 9.86475 8.71631 9.69385 8.78955C9.52295 8.85791 9.4375 8.98242 9.4375 9.16309V14.2827C9.4375 14.4634 9.52051 14.5903 9.68652 14.6636C9.85254 14.7368 10.021 14.7222 10.1919 14.6196Z" fill="white" fill-opacity="0.6"/>
</svg>
