<svg width="24" height="24" viewBox="0 0 24 24" fill="none" xmlns="http://www.w3.org/2000/svg">
<path d="M12.4521 15.8135C12.6035 15.8086 12.7427 15.7793 12.8696 15.7256C13.0015 15.667 13.126 15.5791 13.2432 15.4619L18.7437 9.81494C18.9341 9.62939 19.0293 9.40234 19.0293 9.13379C19.0293 8.95312 18.9854 8.78711 18.8975 8.63574C18.8096 8.48438 18.6899 8.36475 18.5386 8.27686C18.3921 8.18896 18.2285 8.14502 18.0479 8.14502C17.7744 8.14502 17.5352 8.24512 17.3301 8.44531L12.1226 13.8066H12.7891L7.56689 8.44531C7.36182 8.24512 7.12256 8.14502 6.84912 8.14502C6.66846 8.14502 6.50244 8.18896 6.35107 8.27686C6.20459 8.36475 6.0874 8.48438 5.99951 8.63574C5.91162 8.78711 5.86768 8.95312 5.86768 9.13379C5.86768 9.27051 5.88965 9.39502 5.93359 9.50732C5.98242 9.61963 6.05322 9.72461 6.146 9.82227L11.6611 15.4619C11.9004 15.6963 12.1641 15.8135 12.4521 15.8135Z" fill="white" fill-opacity="0.6"/>
</svg>
