<svg width="24" height="24" viewBox="0 0 24 24" fill="none" xmlns="http://www.w3.org/2000/svg">
<path d="M6.97314 4.40967H16.2456C16.1943 3.75781 15.8135 3.40625 15.1104 3.40625H8.10107C7.40527 3.40625 7.01709 3.75781 6.97314 4.40967ZM5.479 6.51904H17.7397C17.6372 5.82324 17.2856 5.42773 16.5093 5.42773H6.70947C5.93311 5.42773 5.58154 5.82324 5.479 6.51904ZM8.47461 20.0029H16.9414C18.5161 20.0029 19.3438 19.1826 19.3438 17.6226V10.0933C19.3438 8.52588 18.5161 7.71289 16.9414 7.71289H6.27002C4.68799 7.71289 3.86768 8.52588 3.86768 10.0933V12.4663C4.10205 12.4297 4.34375 12.4004 4.58545 12.4004C4.82715 12.4004 5.06152 12.4297 5.30322 12.4663V10.2104C5.30322 9.5 5.67676 9.14844 6.35791 9.14844H16.8535C17.5273 9.14844 17.9082 9.5 17.9082 10.2104V17.498C17.9082 18.2085 17.5273 18.5674 16.8535 18.5674H9.17773C9.03857 19.0874 8.79688 19.5781 8.47461 20.0029ZM4.58545 20.9844C6.63623 20.9844 8.35742 19.2705 8.35742 17.2124C8.35742 15.147 6.65088 13.4478 4.58545 13.4478C2.52002 13.4478 0.813477 15.147 0.813477 17.2124C0.813477 19.2852 2.52002 20.9844 4.58545 20.9844ZM3.34766 18.6919V15.7329C3.34766 15.4033 3.67725 15.2568 3.96289 15.4253L6.35059 16.8608C6.65088 17.0366 6.66553 17.3882 6.39453 17.5493L3.96289 18.9922C3.67725 19.168 3.34766 19.0215 3.34766 18.6919Z" fill="white" fill-opacity="0.6"/>
</svg>
