<svg width="24" height="24" viewBox="0 0 24 24" fill="none" xmlns="http://www.w3.org/2000/svg">
<path d="M4.40625 19.9668H14.0449C16.3301 19.9668 17.6875 18.6387 17.6875 16.3633V15.1426L21.1348 18.0625C21.5156 18.3848 21.9453 18.6094 22.3359 18.6094C23.1562 18.6094 23.7129 18.0039 23.7129 17.125V7.54493C23.7129 6.66602 23.1562 6.07032 22.3359 6.07032C21.9453 6.07032 21.5156 6.28516 21.1348 6.6172L17.6875 9.52735V8.28712C17.6875 6.02149 16.3301 4.69337 14.0449 4.69337H4.40625C2.20898 4.69337 0.763672 6.02149 0.763672 8.28712V16.3828C0.763672 18.6582 2.12109 19.9668 4.40625 19.9668ZM4.67969 18.4922C3.18555 18.4922 2.33594 17.7109 2.33594 16.1289V8.52149C2.33594 6.94923 3.18555 6.16798 4.67969 6.16798H13.7715C15.2559 6.16798 16.1152 6.94923 16.1152 8.52149V16.1289C16.1152 17.7109 15.2559 18.4922 13.7715 18.4922H4.67969ZM21.8281 16.7246L17.6875 13.3164V11.3535L21.8281 7.95509C21.9062 7.88673 21.9648 7.84766 22.043 7.84766C22.1504 7.84766 22.1992 7.92579 22.1992 8.05274V16.6172C22.1992 16.7441 22.1504 16.832 22.043 16.832C21.9648 16.832 21.9062 16.7832 21.8281 16.7246Z" fill="white" fill-opacity="0.6"/>
</svg>
