<svg width="24" height="24" viewBox="0 0 24 24" fill="none" xmlns="http://www.w3.org/2000/svg">
<path d="M8.34668 12.708H11.9429C12.1235 12.708 12.2749 12.647 12.397 12.5249C12.519 12.4028 12.5801 12.2515 12.5801 12.0708V7.3833C12.5801 7.20264 12.519 7.05127 12.397 6.9292C12.2749 6.80713 12.1235 6.74609 11.9429 6.74609C11.7671 6.74609 11.6182 6.80713 11.4961 6.9292C11.374 7.05127 11.313 7.20264 11.313 7.3833V11.4409H8.34668C8.16602 11.4409 8.01221 11.502 7.88525 11.624C7.76318 11.7461 7.70215 11.895 7.70215 12.0708C7.70215 12.2515 7.76318 12.4028 7.88525 12.5249C8.01221 12.647 8.16602 12.708 8.34668 12.708ZM11.9502 19.3511C12.9951 19.3511 13.979 19.1509 14.9019 18.7505C15.8247 18.355 16.6353 17.8057 17.3335 17.1025C18.0366 16.3994 18.5884 15.5889 18.9888 14.6709C19.3892 13.748 19.5894 12.7617 19.5894 11.7119C19.5894 10.667 19.3892 9.68555 18.9888 8.76758C18.5884 7.84473 18.0366 7.03174 17.3335 6.32861C16.6353 5.62549 15.8223 5.07617 14.8945 4.68066C13.9717 4.28027 12.9878 4.08008 11.9429 4.08008C10.8979 4.08008 9.91406 4.28027 8.99121 4.68066C8.06836 5.07617 7.25537 5.62549 6.55225 6.32861C5.854 7.03174 5.30469 7.84473 4.9043 8.76758C4.50879 9.68555 4.31104 10.667 4.31104 11.7119C4.31104 12.7617 4.50879 13.748 4.9043 14.6709C5.30469 15.5889 5.85645 16.3994 6.55957 17.1025C7.2627 17.8057 8.07568 18.355 8.99854 18.7505C9.92139 19.1509 10.9053 19.3511 11.9502 19.3511ZM11.9502 17.6738C11.125 17.6738 10.3511 17.52 9.62842 17.2124C8.91064 16.9048 8.27832 16.48 7.73145 15.938C7.18457 15.3911 6.75732 14.7588 6.44971 14.041C6.14697 13.3184 5.99561 12.542 5.99561 11.7119C5.99561 10.8867 6.14697 10.1152 6.44971 9.39746C6.75732 8.6748 7.18213 8.04004 7.72412 7.49316C8.271 6.94629 8.90332 6.51904 9.62109 6.21143C10.3438 5.90381 11.1177 5.75 11.9429 5.75C12.7729 5.75 13.5469 5.90381 14.2646 6.21143C14.9873 6.51904 15.6196 6.94629 16.1616 7.49316C16.7085 8.04004 17.1357 8.6748 17.4434 9.39746C17.7559 10.1152 17.9121 10.8867 17.9121 11.7119C17.9121 12.542 17.7583 13.3184 17.4507 14.041C17.1431 14.7588 16.7158 15.3911 16.1689 15.938C15.6221 16.48 14.9873 16.9048 14.2646 17.2124C13.5469 17.52 12.7754 17.6738 11.9502 17.6738Z" fill="white" fill-opacity="0.6"/>
</svg>
