<svg width="24" height="24" viewBox="0 0 24 24" fill="none" xmlns="http://www.w3.org/2000/svg">
<path d="M7.55469 19.6641H17.0156C17.8594 19.6641 18.4974 19.4479 18.9297 19.0156C19.362 18.5885 19.5781 17.9583 19.5781 17.125V7.61719C19.5781 6.77865 19.362 6.14583 18.9297 5.71875C18.4974 5.29167 17.8594 5.07812 17.0156 5.07812H7.55469C6.71094 5.07812 6.07292 5.29167 5.64062 5.71875C5.20833 6.14583 4.99219 6.77865 4.99219 7.61719V17.125C4.99219 17.9583 5.20833 18.5885 5.64062 19.0156C6.07292 19.4479 6.71094 19.6641 7.55469 19.6641ZM7.64844 18.125C7.28385 18.125 7.00521 18.0312 6.8125 17.8438C6.625 17.6562 6.53125 17.3724 6.53125 16.9922V7.74219C6.53125 7.36719 6.625 7.08594 6.8125 6.89844C7.00521 6.71094 7.28385 6.61719 7.64844 6.61719H16.9219C17.2812 6.61719 17.5573 6.71094 17.75 6.89844C17.9427 7.08594 18.0391 7.36719 18.0391 7.74219V16.9922C18.0391 17.3724 17.9427 17.6562 17.75 17.8438C17.5573 18.0312 17.2812 18.125 16.9219 18.125H7.64844ZM10.8281 15.4375L15.3203 12.8047C15.487 12.7057 15.5677 12.5625 15.5625 12.375C15.5625 12.1823 15.4818 12.0391 15.3203 11.9453L10.8281 9.28906C10.6562 9.1901 10.4792 9.17708 10.2969 9.25C10.1198 9.32292 10.0312 9.45573 10.0312 9.64844V15.0859C10.0312 15.2839 10.1172 15.4193 10.2891 15.4922C10.4609 15.5651 10.6406 15.5469 10.8281 15.4375Z" fill="white" fill-opacity="0.6"/>
</svg>
